<svg width="28" height="28" viewBox="0 0 28 28" fill="none" xmlns="http://www.w3.org/2000/svg">
<path fill-rule="evenodd" clip-rule="evenodd" d="M5.83333 10.5C5.83333 8.33408 6.69375 6.25685 8.22529 4.7253C9.75684 3.19376 11.8341 2.33334 14 2.33334C16.1659 2.33334 18.2432 3.19376 19.7747 4.7253C21.3063 6.25685 22.1667 8.33408 22.1667 10.5V14.8913L24.2923 19.1427C24.3902 19.3384 24.4364 19.5558 24.4266 19.7743C24.4167 19.9929 24.3512 20.2053 24.2362 20.3914C24.1211 20.5775 23.9605 20.7311 23.7694 20.8376C23.5783 20.9441 23.3631 21 23.1443 21H18.5197C18.2602 22.0013 17.6755 22.8881 16.8575 23.5211C16.0394 24.1541 15.0344 24.4976 14 24.4976C12.9656 24.4976 11.9606 24.1541 11.1425 23.5211C10.3245 22.8881 9.73984 22.0013 9.48033 21H4.85567C4.63689 21 4.42174 20.9441 4.23064 20.8376C4.03955 20.7311 3.87886 20.5775 3.76384 20.3914C3.64881 20.2053 3.58327 19.9929 3.57344 19.7743C3.56361 19.5558 3.60981 19.3384 3.70767 19.1427L5.83333 14.8913V10.5ZM11.9793 21C12.1841 21.3547 12.4787 21.6492 12.8334 21.854C13.1881 22.0588 13.5904 22.1666 14 22.1666C14.4096 22.1666 14.8119 22.0588 15.1666 21.854C15.5213 21.6492 15.8159 21.3547 16.0207 21H11.9793ZM14 4.66668C12.4529 4.66668 10.9692 5.28126 9.87521 6.37522C8.78125 7.46918 8.16667 8.95291 8.16667 10.5V14.8913C8.16664 15.2534 8.08236 15.6105 7.9205 15.9343L6.5555 18.6667H21.4457L20.0807 15.9343C19.9184 15.6106 19.8337 15.2535 19.8333 14.8913V10.5C19.8333 8.95291 19.2188 7.46918 18.1248 6.37522C17.0308 5.28126 15.5471 4.66668 14 4.66668Z" fill="#FCFCFC"/>
</svg>
